<svg xmlns="http://www.w3.org/2000/svg" version="1.1" viewBox="-5.0 -10.0 110.0 135.0">
 <g>
  <path d="m10.938 75c0 0.86328 0.69922 1.5625 1.5625 1.5625h1.5625v-3.125h-1.5625c-0.86328 0-1.5625 0.69922-1.5625 1.5625z"/>
  <path d="m78.125 25c0.86328 0 1.5625-0.69922 1.5625-1.5625s-0.69922-1.5625-1.5625-1.5625h-1.5625v3.125z"/>
  <path d="m70.312 20.312h3.125v6.25h-3.125z"/>
  <path d="m12.5 21.875c-0.86328 0-1.5625 0.69922-1.5625 1.5625s0.69922 1.5625 1.5625 1.5625h1.5625v-3.125z"/>
  <path d="m59.562 62.043c-0.30469 0.30469-0.70312 0.45703-1.1055 0.45703-0.39844 0-0.80078-0.15234-1.1055-0.45703-0.60937-0.60938-0.60937-1.5977 0-2.2109l5.0391-5.0391c-0.57031-3.1367-1.1445-10.836 4.7969-17.68v-16.801h-43.75v46.875h43.75v-9.2539c-0.95703-0.14062-1.9414-0.32422-2.957-0.55859l-4.6719 4.6719zm-25.188-35.48h25c0.86328 0 1.5625 0.69922 1.5625 1.5625s-0.69922 1.5625-1.5625 1.5625h-25c-0.86328 0-1.5625-0.69922-1.5625-1.5625s0.69922-1.5625 1.5625-1.5625zm17.188 35.938h-17.188c-0.86328 0-1.5625-0.69922-1.5625-1.5625s0.69922-1.5625 1.5625-1.5625h17.188c0.86328 0 1.5625 0.69922 1.5625 1.5625s-0.69922 1.5625-1.5625 1.5625zm0-10.938h-17.188c-0.86328 0-1.5625-0.69922-1.5625-1.5625s0.69922-1.5625 1.5625-1.5625h17.188c0.86328 0 1.5625 0.69922 1.5625 1.5625s-0.69922 1.5625-1.5625 1.5625zm0-10.938h-17.188c-0.86328 0-1.5625-0.69922-1.5625-1.5625s0.69922-1.5625 1.5625-1.5625h17.188c0.86328 0 1.5625 0.69922 1.5625 1.5625s-0.69922 1.5625-1.5625 1.5625z"/>
  <path d="m84.957 41.98c4.2578-0.90625 5.1055-5.5508 5.25-8.0234-4.9883 0.48828-11.445 2.9648-11.516 2.9922-0.48047 0.18359-1.0195 0.12109-1.4453-0.16797-0.42578-0.29297-0.67969-0.77344-0.67969-1.2891v-1.7422c-10.578 5.625-11.715 13.789-11.414 18.289l9.6953-9.6953c0.60938-0.60938 1.5977-0.60938 2.2109 0 0.60938 0.60938 0.60938 1.5977 0 2.2109l-10.164 10.164c0.37109 0.0625 0.75391 0.14062 1.1133 0.1875 0.22266-0.125 0.46875-0.21484 0.74219-0.21484 0.39062 0 0.73828 0.15625 1.0117 0.39453 10.422 0.80078 16.621-4.3477 18.871-6.6953l-4.3594-3.6875c-0.45703-0.38281-0.65234-0.99609-0.50781-1.5742s0.60547-1.0234 1.1914-1.1484z"/>
  <path d="m17.188 20.312h3.125v6.25h-3.125z"/>
  <path d="m78.125 76.562c0.86328 0 1.5625-0.69922 1.5625-1.5625s-0.69922-1.5625-1.5625-1.5625h-1.5625v3.125z"/>
  <path d="m21.875 70.312h-3.125v9.375h54.688v-9.375z"/>
 </g>
<text x="0.0" y="117.5" font-size="5.0" font-weight="bold" font-family="Arbeit Regular, Helvetica, Arial-Unicode, Arial, Sans-serif" fill="#000000">Created by Ian Rahmadi Kurniawan</text><text x="0.0" y="122.5" font-size="5.0" font-weight="bold" font-family="Arbeit Regular, Helvetica, Arial-Unicode, Arial, Sans-serif" fill="#000000">from Noun Project</text></svg>