<svg xmlns="http://www.w3.org/2000/svg" version="1.1" viewBox="-5.0 -10.0 110.0 135.0">
 <g>
  <path d="m76.07 79.43c0.33984 0.089843 0.66406 0.22656 0.99219 0.35937 0.19531 0.078126 0.40234 0.12109 0.58984 0.21094l16.465 8.2344v-7.7148l-18.047-9.0234z"/>
  <path d="m30.781 67.832c-0.20703-0.039062-0.41406-0.070312-0.625-0.10156-0.84375 1.1758-2.0195 2.4453-3.3359 2.957-0.039062 0.015625-0.078124 0.011719-0.11328 0.027344-0.33594 0.11719-0.67188 0.22656-1.0234 0.22656-0.35156 0-0.71484-0.089844-1.0898-0.24219-0.16406-0.0625-0.32422-0.17969-0.48828-0.26953-0.17969-0.10156-0.35547-0.17969-0.53516-0.3125-0.17969-0.12891-0.35547-0.30078-0.53125-0.46094-0.55078-0.48047-1.1094-1.0508-1.6953-1.8086-0.20312 0.035156-0.40625 0.074219-0.60156 0.11328-3.3125 0.68359-4.375 1.7188-4.4766 1.957 0.074219 0.12109 0.33203 0.31641 0.76172 0.54297l0.015625-0.007813s3.0547 1.707 8.9023 1.707c3.9727 0 6.957-0.84766 8.3008-1.3125 0.91016-0.37891 1.4844-0.76172 1.6836-1.0352-0.36328-0.45312-1.9297-1.4258-5.1484-1.9805z"/>
  <path d="m25.68 38.102c-1.8945 0-3.6094 0.76172-4.8789 1.9844-0.0625 0.058593-0.11719 0.11328-0.19141 0.19531-0.074219 0.078125-0.13672 0.17188-0.21094 0.25391-0.34375 0.42188-0.76953 1.043-1.2305 1.9492-0.28125 0.68359-0.43359 1.4297-0.48047 2.2031-0.10547 2.9297 0.91797 7.418 1.5586 9.8984 1.3281 4.7383 3.2305 9.3281 4.7461 11.359 0.26172 0.30078 0.51172 0.56641 0.71875 0.75391 2.5664-2.2266 7.0078-14.742 7.0078-21.562 0-3.8789-3.1562-7.0352-7.0391-7.0352zm0 10.719c-2.0352 0-3.6836-1.6484-3.6836-3.6836 0-2.0352 1.6484-3.6836 3.6836-3.6836 2.0352 0 3.6836 1.6484 3.6836 3.6836 0 2.0352-1.6484 3.6836-3.6836 3.6836z"/>
  <path d="m52.004 81.523v7.7148l18.473-9.2344c0.50391-0.25391 1.0391-0.43359 1.582-0.57422v-7.9336z"/>
  <path d="m23.93 79.43v-3.3086c-0.24219-0.015625-0.47656-0.035156-0.71484-0.058594-0.15234-0.011719-0.28125-0.035156-0.42578-0.050781-0.65625-0.066407-1.3047-0.14453-1.9375-0.25-0.37891-0.066407-0.69922-0.14062-1.043-0.21484-0.41016-0.085937-0.82031-0.16797-1.2109-0.27344-0.51172-0.13672-0.99219-0.27734-1.3945-0.41406l-11.32 5.6602v7.7148l16.465-8.2344c0.50391-0.25 1.0391-0.42969 1.582-0.57031z"/>
  <path d="m16.016 54.289c-0.46875-1.8984-0.88281-4.0117-1.1211-6.0586-0.16797-1.2148-0.26172-2.2812-0.26172-3.0938 0-0.51562 0.082032-1.0078 0.15234-1.5039 0.007813-0.085937 0-0.1875 0.011719-0.26953l-8.9141 3.5664v11.414l9.7812-3.9141z"/>
  <path d="m17.09 38.188c0.023437-0.003906 0.046875-0.003906 0.074218-0.007812 1.6719-2.0469 4.0391-3.4766 6.7656-3.9141v-6.6992l-18.047 6.7539v8.2891l10.543-4.2188c0.21875-0.085937 0.44141-0.15625 0.66406-0.20312z"/>
  <path d="m12.262 69.824c0-2.5703 2.6133-4.6094 7.1523-5.6562-0.84766-1.8438-1.6094-3.9102-2.2617-6.0117l-11.27 4.5078v13.375l7.3828-3.6914c-0.60938-0.73828-1.0039-1.5625-1.0039-2.5234z"/>
  <path d="m36.727 45.137c0 3.7422-1.8633 12.574-4.7109 18.859 5.0469 0.97656 7.9531 3.0781 7.9531 5.8242 0 1.0156-0.41797 1.8906-1.0977 2.6562l9.1172 4.5586 0.007813-42.043c-0.26953-0.070313-0.54297-0.125-0.80469-0.22266l-19.25-7.2031v6.7617c5.0156 1.043 8.7852 5.4844 8.7852 10.809z"/>
  <path d="m73.637 38.609c0.050781-0.03125 0.097656-0.078125 0.14453-0.10938 2.582-2.5039 6.8828-14.719 6.8828-21.434 0-3.8789-3.1562-7.0352-7.0352-7.0352s-7.0352 3.1562-7.0352 7.0352c0 2.4336 0.57031 5.5938 1.4141 8.75 0.28906 1.0117 0.79688 2.7227 1.3594 4.4141 0.63281 1.8203 1.3164 3.5078 1.9922 4.9102 0.60156 1.1484 1.2695 2.2461 1.7266 2.8906 0.19531 0.21484 0.39062 0.42578 0.55078 0.57812zm-0.011719-25.227c2.0352 0 3.6836 1.6484 3.6836 3.6836s-1.6484 3.6836-3.6836 3.6836-3.6836-1.6484-3.6836-3.6836c0.003906-2.0352 1.6523-3.6836 3.6836-3.6836z"/>
  <path d="m72.059 67.012v-18.961c-6.0312-0.36328-11.852-2.3594-11.852-6.3047 0-2.5703 2.6094-4.6094 7.1523-5.6562-0.16797-0.36328-0.33203-0.66797-0.50391-1.0742-0.58594-1.375-1.207-3.2031-1.7305-4.8594l-12.312 4.6094c-0.26172 0.097656-0.53516 0.15234-0.80469 0.22266v42.047zm-18.047-8.4883c0-1.8398 1.2539-3.4453 3.0391-3.8906l8.0195-2.0039c0.32813-0.082031 0.66016-0.12109 0.98047-0.12109 2.1484 0 4.0039 1.7422 4.0039 4.0117v7.7734c0 1.8398-1.2539 3.4453-3.0391 3.8906l-8.0195 2.0039c-0.32812 0.082031-0.66016 0.12109-0.98047 0.12109-2.1484 0-4.0039-1.7422-4.0039-4.0117z"/>
  <path d="m47.996 89.238v-7.7148l-13.227-6.6133c-2.0195 0.6875-4.3945 1.0898-6.8281 1.2227v3.2969c0.37891 0.097656 0.73828 0.24609 1.1016 0.39844 0.15625 0.066406 0.32812 0.097656 0.48047 0.17578z"/>
  <path d="m66.043 56.516-8.0234 2.0078v7.7734l8.0234-2.0039z"/>
  <path d="m74.734 42.625h-0.011719c-0.027344 0.011719-0.058594 0.007812-0.089844 0.015625-0.33203 0.11719-0.66406 0.22656-1.0117 0.22656-0.35156 0-0.71484-0.089844-1.0898-0.24219-0.16797-0.0625-0.33203-0.18359-0.5-0.27344-0.17578-0.097656-0.34375-0.17187-0.52344-0.30078-0.12891-0.09375-0.25781-0.21094-0.38672-0.32031-0.089844-0.070313-0.1875-0.17188-0.28125-0.25391-0.23047-0.21094-0.46484-0.4375-0.70312-0.69531-0.003907-0.003906-0.007813-0.007812-0.011719-0.011719-0.28125-0.30859-0.5625-0.60938-0.85156-0.98438-0.20313 0.035156-0.40234 0.074219-0.59766 0.11328-3.3164 0.68359-4.3789 1.7188-4.4805 1.957 0.30859 0.49609 3.6875 2.2617 9.8672 2.2617 5.8984 0 9.2422-1.6094 9.8008-2.3711-0.34766-0.46094-1.918-1.4375-5.1406-1.9883-0.17188-0.03125-0.33984-0.058593-0.51172-0.082031-0.49609 0.64844-1.0312 1.2109-1.6094 1.6914-0.56641 0.53906-1.1758 0.99219-1.8398 1.25-0.007813 0-0.015625 0.003906-0.027344 0.007812z"/>
  <path d="m86.098 63.699 8.0195 4.0078v-11.086l-8.0078-4.0039z"/>
  <path d="m87.918 41.746c0 3.9453-5.8164 5.9414-11.848 6.3047v18.961l18.047 9.0234v-3.8438l-9.8164-4.9062c-1.3594-0.67969-2.2188-2.0664-2.2188-3.5859l0.003907-11.086c0-2.3242 1.9062-4.0156 4.0117-4.0156 0.59375 0 1.2031 0.13672 1.793 0.42969l6.2266 3.1133v-17.82l-11.641-4.3555c-0.51953 1.9453-1.2266 4.0742-2.1289 6.043 4.8047 1.0039 7.5703 3.0625 7.5703 5.7383z"/>
 </g>
<text x="0.0" y="117.5" font-size="5.0" font-weight="bold" font-family="Arbeit Regular, Helvetica, Arial-Unicode, Arial, Sans-serif" fill="#000000">Created by moon studio</text><text x="0.0" y="122.5" font-size="5.0" font-weight="bold" font-family="Arbeit Regular, Helvetica, Arial-Unicode, Arial, Sans-serif" fill="#000000">from Noun Project</text></svg>