<svg xmlns="http://www.w3.org/2000/svg" xmlns:xlink="http://www.w3.org/1999/xlink" version="1.1" x="0px" y="0px" viewBox="0 0 850.39 1062.98875" enable-background="new 0 0 850.39 850.391" xml:space="preserve"><g><path d="M764.173,493.82c-0.191-0.081-0.385-0.153-0.58-0.222L659.615,457.83c-10.016-14.645-58.184-84.869-69.41-97.504   c-4.908-5.521-10.395-9.502-15.961-12.36c11.195-9.525,18.318-23.704,18.318-39.521V193.349c0-28.614-23.277-51.895-51.895-51.895   h-81.711v-23.807c0-5.158-4.184-9.34-9.342-9.34h-66.093c-5.158,0-9.34,4.183-9.34,9.34v23.807h-81.709   c-28.617,0-51.896,23.279-51.896,51.895v115.096c0,15.565,6.898,29.541,17.787,39.062c-9.881,5.528-14.39,13.178-15.141,14.55   L182.59,473.054h-72.08c-0.196,0-0.394,0.006-0.591,0.019c-9.427,0.598-27.256,6.799-27.256,25.999   c0,12.211-8.033,75.087-11.127,98.285c-0.055,0.408-0.083,0.821-0.083,1.234c0,18.284,13.763,32.034,36.816,36.782   c15.424,3.175,63.981,4.502,82.171,4.896c7.413,26.709,31.934,46.377,60.981,46.377c28.996,0,53.483-19.602,60.942-46.241   l245.369-0.002c7.457,26.643,31.945,46.243,60.941,46.243c29.209,0,53.854-19.889,61.113-46.83   c6.225-0.396,14.865-0.669,24.465-0.973c39.631-1.253,70.969-2.732,83.836-9.295c3.072-1.565,5.029-4.693,5.096-8.14l1.559-80.195   c0.002-0.061,0.002-0.12,0.002-0.182C794.744,520.159,782.746,501.627,764.173,493.82z M775.193,576.582h-27.09v-33.179h27.09   V576.582z M573.882,193.349v115.096c0,16.304-11.816,29.873-27.33,32.662c-5.533-0.185-9.744,0.289-11.566,0.552h-2.104V160.135   h7.787C558.984,160.135,573.882,175.035,573.882,193.349z M488.445,341.658V160.135h25.758v181.522L488.445,341.658   L488.445,341.658z M366.08,341.658V160.135h103.685v181.522L366.08,341.658L366.08,341.658z M318.939,341.658V160.135h28.459   v181.522L318.939,341.658L318.939,341.658z M392.864,126.989h47.413v14.467h-47.413V126.989z M259.257,193.349   c0-18.313,14.902-33.214,33.217-33.214h7.784v181.522h-7.784c-18.315,0-33.217-14.898-33.217-33.214V193.349z M251.421,667.967   c-24.599,0-44.61-20.003-44.61-44.59c0-24.586,20.012-44.589,44.61-44.589c24.598,0,44.608,20.003,44.608,44.589   C296.03,647.964,276.019,667.967,251.421,667.967z M618.675,667.967c-24.6,0-44.611-20.003-44.611-44.59   c0-24.586,20.014-44.589,44.611-44.589s44.611,20.003,44.611,44.589C663.287,647.964,643.273,667.967,618.675,667.967z    M703.664,620.172c-8.154,0.258-15.635,0.496-21.758,0.814c-1.264-33.781-29.135-60.88-63.23-60.88   c-34.344,0-62.365,27.492-63.248,61.615l-240.758,0.002c-0.882-34.125-28.904-61.617-63.247-61.617   c-34.281,0-62.264,27.394-63.243,61.429c-23.143-0.535-63.943-1.946-76.141-4.458c-8.056-1.659-21.488-6.188-21.894-17.938   c0.37-2.791,1.669-12.608,3.257-25.136h53.873c5.159,0,9.34-4.184,9.34-9.34c0-5.158-4.182-9.341-9.34-9.341H95.725   c2.814-23.102,5.619-48.141,5.619-56.252c0-6.014,7.575-7.146,9.549-7.338h77.237c3.416,0,6.56-1.865,8.197-4.862l63.29-115.859   c0.034-0.063,0.067-0.125,0.101-0.188c0.054-0.104,5.884-10.482,22.442-10.482h10.315h243.237h4.957   c2.314,0,4.59-0.168,6.824-0.464c8.346,0.532,20.146,3.186,28.748,12.861c9.539,10.732,53.543,74.514,69.691,98.185   c1.137,1.661,2.775,2.913,4.678,3.567l106.592,36.666c6.355,2.744,11.453,7.564,14.74,13.567h-33.178   c-5.158,0-9.34,4.183-9.34,9.34v51.858c0,5.158,4.182,9.341,9.34,9.341h36.242l-0.375,19.362   C759.712,618.4,725.285,619.489,703.664,620.172z"/><path d="M552.335,391.552c-0.053-0.071-0.111-0.136-0.164-0.205c-0.104-0.138-0.209-0.271-0.322-0.4   c-0.1-0.118-0.203-0.229-0.309-0.34c-0.1-0.104-0.199-0.209-0.305-0.31c-0.121-0.117-0.248-0.23-0.375-0.342   c-0.1-0.086-0.197-0.168-0.301-0.25c-0.137-0.106-0.273-0.211-0.416-0.312c-0.105-0.074-0.215-0.147-0.322-0.219   c-0.143-0.089-0.281-0.177-0.428-0.259c-0.123-0.07-0.248-0.139-0.375-0.203c-0.137-0.068-0.271-0.136-0.408-0.197   c-0.145-0.064-0.287-0.125-0.436-0.184c-0.131-0.052-0.262-0.099-0.395-0.145c-0.154-0.054-0.311-0.104-0.471-0.146   c-0.135-0.037-0.268-0.071-0.404-0.104c-0.154-0.036-0.313-0.07-0.469-0.1c-0.152-0.027-0.309-0.05-0.463-0.07   c-0.141-0.019-0.279-0.035-0.42-0.047c-0.184-0.017-0.365-0.023-0.549-0.027c-0.082-0.003-0.162-0.014-0.242-0.014h-255.49   c-3.619,0-6.751,2.063-8.303,5.073c-1.575,0.925-2.897,2.314-3.729,4.095l-42.064,89.926c-2.186,4.673-0.17,10.232,4.503,12.418   c1.278,0.598,2.625,0.882,3.951,0.882c0.889,0,1.766-0.129,2.61-0.375c0.824,0.239,1.69,0.372,2.591,0.372h315.893   c5.158,0,9.342-4.182,9.342-9.34s-4.184-9.34-9.342-9.34H434.359v-75.029h105.633l64.887,89.839   c1.826,2.528,4.682,3.871,7.58,3.871c1.895,0,3.807-0.574,5.461-1.769c4.18-3.021,5.123-8.858,2.104-13.041L552.335,391.552z    M415.678,481.392H258.316l35.097-75.029h122.265V481.392z"/></g><text x="0" y="865.391" fill="#000000" font-size="5px" font-weight="bold" font-family="'Helvetica Neue', Helvetica, Arial-Unicode, Arial, Sans-serif">Created by seosujung</text><text x="0" y="870.391" fill="#000000" font-size="5px" font-weight="bold" font-family="'Helvetica Neue', Helvetica, Arial-Unicode, Arial, Sans-serif">from the Noun Project</text></svg>